<?xml version="1.0" encoding="utf-8"?>
<svg version="1.1" id="Layer_1" x="0px" y="0px" viewBox="0 0 277 277" style="enable-background:new 0 0 277 277;" xmlns="http://www.w3.org/2000/svg">
  <style type="text/css">
	.st0{fill:#FFFFFF;}
	.st1{fill-rule:evenodd;clip-rule:evenodd;fill:#A4C648;}
	.st2{fill:#A4C648;}
	.st3{fill:#FDFDFD;}
</style>
  <g id="NET">
    <polygon class="st0" points="266.66,14.12 257.56,8.27 18.43,8.27 9.33,17.37 9.33,257.16 15.18,264.95 193.88,264.95 &#10;&#9;&#9;266.66,172.68 &#9;"/>
    <g>
      <path class="st1" d="M87.47,179.98c0-25.77,9.04-47.7,27.13-65.8c17.97-18.08,39.9-27.13,65.8-27.13 c25.52,0,47.39,9.04,65.61,27.13c18.21,18.1,27.32,40.03,27.32,65.8c0,25.66-9.11,47.52-27.32,65.61 c-18.22,18.21-40.09,27.32-65.61,27.32c-25.9,0-47.83-9.11-65.8-27.32C96.51,227.5,87.47,205.64,87.47,179.98" style="stroke-width: 0px; paint-order: stroke; fill: rgb(255, 205, 56);"/>
      <path class="st1" d="M273.33,179.98h-10.89V23.18c0-4.01-1.43-6.69-4.31-8.07c-0.99-0.5-2.15-0.88-3.47-1.12l-1.6-0.19H23.43 c-4.07,0-6.76,1.4-8.07,4.21c-0.81,1.63-1.25,3.35-1.31,5.16v229.46c0,4,1.4,6.66,4.22,7.98c1.62,0.81,3.35,1.29,5.16,1.41h152.19 l4.78,10.89H20.04c-2.82,0-5.63-0.69-8.44-2.07c-5.63-2.81-8.45-7.75-8.45-14.82V19.81c0-2.82,0.72-5.63,2.16-8.45 c2.82-5.63,7.73-8.44,14.73-8.44h236.4l2.62,0.28c2.13,0.32,4.07,0.94,5.82,1.88c5.62,2.81,8.44,7.72,8.44,14.73L273.33,179.98 L273.33,179.98z" style="stroke-width: 0px; paint-order: stroke; fill: rgb(255, 205, 56);"/>
      <g>
        <path class="st2" d="M96.75,98.31H86.33L76.41,63.4c-0.43-1.52-0.96-3.72-1.6-6.59s-1.03-4.86-1.16-5.99 c-0.27,1.71-0.7,3.92-1.3,6.65s-1.1,4.75-1.5,6.09l-9.69,34.75H50.74L43.17,69l-7.69-29.23h9.77l8.37,34.11 c1.31,5.47,2.24,10.3,2.8,14.49c0.29-2.27,0.73-4.8,1.32-7.61c0.59-2.8,1.12-5.07,1.6-6.81l9.53-34.19h9.49l9.77,34.35 c0.93,3.18,1.92,7.93,2.96,14.25c0.4-3.82,1.36-8.67,2.88-14.57l8.33-34.03h9.7L96.75,98.31z" style="stroke-width: 0px; paint-order: stroke; fill: rgb(255, 205, 56);"/>
      </g>
      <g>
        <rect x="123.38" y="133.69" class="st3" width="113.07" height="8.45" style="stroke-width: 0px; paint-order: stroke;"/>
        <rect x="123.38" y="162.93" class="st3" width="113.07" height="8.45" style="stroke-width: 0px; paint-order: stroke;"/>
        <rect x="123.38" y="191.2" class="st3" width="77.33" height="8.45" style="stroke-width: 0px; paint-order: stroke;"/>
        <rect x="123.38" y="220.44" class="st3" width="41.2" height="8.45" style="stroke-width: 0px; paint-order: stroke;"/>
      </g>
    </g>
  </g>
</svg>